<svg xmlns="http://www.w3.org/2000/svg" width="171" height="192" viewBox="0 0 171 192" version="1.1"><path d="M 72.500 12.554 C 67 15.532, 62.880 17.975, 63.344 17.984 C 63.808 17.993, 68.928 15.525, 74.721 12.500 C 80.514 9.475, 84.634 7.031, 83.877 7.070 C 83.120 7.108, 78 9.576, 72.500 12.554 M 90 9.611 C 101.816 16.404, 122.460 25.119, 126.330 24.948 C 126.973 24.920, 122.714 23.186, 116.863 21.096 C 111.013 19.005, 101.930 14.979, 96.678 12.147 C 86.854 6.851, 81.979 5, 90 9.611 M 57.046 19.668 C 55.147 20.495, 48.172 22.682, 41.546 24.528 C 34.921 26.373, 30.252 27.909, 31.170 27.942 C 33.598 28.027, 56.596 21.285, 59.788 19.552 C 63.294 17.649, 61.508 17.724, 57.046 19.668 M 77 28.201 C 72.875 30.375, 70.625 31.850, 72 31.477 C 73.375 31.104, 76.812 29.519, 79.637 27.955 L 84.774 25.111 91.244 28.546 C 98.168 32.223, 110.996 37.337, 111.651 36.682 C 111.869 36.464, 109.225 35.263, 105.774 34.013 C 102.323 32.763, 96.350 30.115, 92.500 28.128 C 88.650 26.142, 85.275 24.456, 85 24.382 C 84.725 24.307, 81.125 26.026, 77 28.201 M 130 26.052 C 131.375 26.661, 138.534 28.246, 145.910 29.573 C 153.285 30.900, 159.585 32.250, 159.910 32.572 C 160.234 32.894, 160.757 37.509, 161.072 42.829 L 161.644 52.500 161.822 42.872 C 161.953 35.778, 161.641 32.947, 160.634 32.111 C 159.882 31.487, 153.245 29.873, 145.884 28.524 C 138.523 27.176, 131.375 25.818, 130 25.508 L 127.500 24.944 130 26.052 M 17.500 29.616 C 13.392 30.428, 9.983 31.698, 9.250 32.691 C 8.299 33.978, 8.053 42.171, 8.223 66.941 L 8.447 99.500 8.973 66.332 C 9.263 48.090, 9.759 32.906, 10.075 32.590 C 10.392 32.274, 14.892 31.165, 20.075 30.124 C 25.259 29.083, 28.375 28.232, 27 28.233 C 25.625 28.233, 21.350 28.856, 17.500 29.616 M 63.500 34.072 C 61.300 35.130, 60.625 35.715, 62 35.373 C 64.831 34.668, 70.030 32.062, 68.500 32.114 C 67.950 32.133, 65.700 33.014, 63.500 34.072 M 55 37 C 53.172 38.181, 54.751 38.181, 57.500 37 C 58.819 36.433, 58.989 36.122, 58 36.086 C 57.175 36.055, 55.825 36.467, 55 37 M 116 38.500 C 117.925 39.241, 120.175 39.848, 121 39.848 C 121.825 39.848, 120.925 39.241, 119 38.500 C 117.075 37.759, 114.825 37.152, 114 37.152 C 113.175 37.152, 114.075 37.759, 116 38.500 M 43.500 40.117 C 39.101 41.303, 37.986 41.825, 40.500 41.521 C 44.736 41.009, 54.550 38.187, 52 38.214 C 51.175 38.223, 47.350 39.079, 43.500 40.117 M 127.500 41.570 C 130.250 42.335, 133.400 42.932, 134.500 42.896 C 135.600 42.859, 134.025 42.212, 131 41.457 C 123.843 39.671, 121.005 39.763, 127.500 41.570 M 32.750 42.662 C 33.438 42.940, 34.563 42.940, 35.250 42.662 C 35.938 42.385, 35.375 42.158, 34 42.158 C 32.625 42.158, 32.063 42.385, 32.750 42.662 M 28.813 43.683 C 29.534 43.972, 30.397 43.936, 30.729 43.604 C 31.061 43.272, 30.471 43.036, 29.417 43.079 C 28.252 43.127, 28.015 43.364, 28.813 43.683 M 137.750 43.662 C 138.438 43.940, 139.563 43.940, 140.250 43.662 C 140.938 43.385, 140.375 43.158, 139 43.158 C 137.625 43.158, 137.063 43.385, 137.750 43.662 M 142.750 44.662 C 143.438 44.940, 144.563 44.940, 145.250 44.662 C 145.938 44.385, 145.375 44.158, 144 44.158 C 142.625 44.158, 142.063 44.385, 142.750 44.662 M 146.417 68.500 C 146.418 78.950, 146.566 83.089, 146.746 77.698 C 146.926 72.307, 146.925 63.757, 146.744 58.698 C 146.563 53.639, 146.416 58.050, 146.417 68.500 M 23 59 C 23 59.733, 23.300 60.033, 23.667 59.667 C 24.033 59.300, 24.033 58.700, 23.667 58.333 C 23.300 57.967, 23 58.267, 23 59 M 161.079 61.583 C 161.127 62.748, 161.364 62.985, 161.683 62.188 C 161.972 61.466, 161.936 60.603, 161.604 60.271 C 161.272 59.939, 161.036 60.529, 161.079 61.583 M 23.355 69.500 C 23.352 74.450, 23.521 76.601, 23.731 74.280 C 23.940 71.959, 23.943 67.909, 23.736 65.280 C 23.530 62.651, 23.358 64.550, 23.355 69.500 M 111.872 65.750 C 110.680 67.271, 110.697 67.354, 112 66.384 C 112.825 65.771, 114.175 65.019, 115 64.713 C 116.255 64.249, 116.234 64.145, 114.872 64.079 C 113.977 64.036, 112.627 64.787, 111.872 65.750 M 121.102 66.282 C 123.655 67.997, 124.581 69.405, 124.826 71.948 C 125.136 75.167, 123.980 76.505, 101.334 99.167 C 88.234 112.275, 76.837 123.036, 76.008 123.079 C 74.822 123.141, 74.792 123.274, 75.869 123.702 C 76.725 124.042, 86.390 115.100, 101.619 99.881 C 123.205 78.309, 126 75.152, 126 72.347 C 126 70.036, 125.167 68.477, 122.923 66.589 C 121.231 65.165, 119.365 64, 118.775 64 C 118.186 64, 119.233 65.027, 121.102 66.282 M 100.140 77 C 96.693 80.850, 94.046 84, 94.256 84 C 94.467 84, 97.664 80.850, 101.360 77 C 105.056 73.150, 107.704 70, 107.244 70 C 106.784 70, 103.587 73.150, 100.140 77 M 23.195 81.500 C 23.215 83.150, 23.439 83.704, 23.693 82.731 C 23.947 81.758, 23.930 80.408, 23.656 79.731 C 23.382 79.054, 23.175 79.850, 23.195 81.500 M 90.872 86.750 C 89.629 88.336, 89.664 88.371, 91.250 87.128 C 92.916 85.821, 93.445 85, 92.622 85 C 92.415 85, 91.627 85.787, 90.872 86.750 M 50.437 90.250 L 47.500 93.500 50.555 90.750 C 55.572 86.233, 58.075 86.962, 66.012 95.250 C 69.830 99.237, 72.965 102.179, 72.977 101.786 C 72.990 101.393, 69.927 97.905, 66.171 94.036 C 58.039 85.658, 55.203 84.976, 50.437 90.250 M 161.286 91.500 C 161.294 94.250, 161.488 95.256, 161.718 93.736 C 161.947 92.216, 161.941 89.966, 161.704 88.736 C 161.467 87.506, 161.279 88.750, 161.286 91.500 M 145.272 96 C 145.272 98.475, 145.467 99.487, 145.706 98.250 C 145.944 97.013, 145.944 94.987, 145.706 93.750 C 145.467 92.513, 145.272 93.525, 145.272 96 M 80.765 96.527 C 78.710 98.437, 77.384 100, 77.819 100 C 78.253 100, 80.134 98.425, 82 96.500 C 86.353 92.009, 85.607 92.025, 80.765 96.527 M 24.252 98.500 C 24.263 100.700, 24.468 101.482, 24.707 100.238 C 24.946 98.994, 24.937 97.194, 24.687 96.238 C 24.437 95.282, 24.241 96.300, 24.252 98.500 M 47.079 96.583 C 47.127 97.748, 47.364 97.985, 47.683 97.188 C 47.972 96.466, 47.936 95.603, 47.604 95.271 C 47.272 94.939, 47.036 95.529, 47.079 96.583 M 160.252 101.500 C 160.263 103.700, 160.468 104.482, 160.707 103.238 C 160.946 101.994, 160.937 100.194, 160.687 99.238 C 160.437 98.282, 160.241 99.300, 160.252 101.500 M 54.578 106.133 C 58.385 110.332, 61.704 113.578, 61.954 113.346 C 62.204 113.115, 59.089 109.680, 55.032 105.713 L 47.656 98.500 54.578 106.133 M 9.112 103.590 C 8.935 108.463, 12.702 121.803, 16.543 129.911 C 22.901 143.331, 32.589 154.970, 47 166.504 C 59.379 176.412, 79.144 187, 85.260 187 C 88.641 187, 103.112 179.643, 113.808 172.487 C 123.003 166.335, 133.519 156.859, 140.458 148.473 C 145.823 141.990, 154.993 126.831, 154.961 124.500 C 154.954 123.950, 153.267 126.650, 151.213 130.500 C 149.160 134.350, 145.949 139.750, 144.078 142.500 C 139.143 149.753, 123.689 164.690, 115 170.606 C 103.872 178.182, 88.641 186, 85.011 186 C 77.261 186, 52.381 170.968, 38.706 158.024 C 22.764 142.933, 14.397 127.821, 10.455 107 C 9.675 102.878, 9.183 101.631, 9.112 103.590 M 74.507 101.989 C 74.157 102.555, 74.558 102.723, 75.448 102.382 C 77.180 101.717, 77.497 101, 76.059 101 C 75.541 101, 74.843 101.445, 74.507 101.989 M 144.123 102.500 C 144.040 103.600, 143.741 105.625, 143.458 107 L 142.944 109.500 144.015 107.047 C 144.604 105.698, 144.903 103.673, 144.679 102.547 C 144.283 100.553, 144.268 100.552, 144.123 102.500 M 25.645 106.951 C 26.203 111.103, 28.840 119.713, 28.875 117.500 C 28.884 116.950, 28.026 113.350, 26.969 109.500 C 25.543 104.307, 25.201 103.649, 25.645 106.951 M 158.556 109.556 C 158.179 111.562, 158.071 113.404, 158.315 113.649 C 158.560 113.893, 159.068 112.451, 159.444 110.444 C 159.821 108.438, 159.929 106.596, 159.685 106.351 C 159.440 106.107, 158.932 107.549, 158.556 109.556 M 140.769 114.769 C 138.587 120.838, 139.258 121.509, 141.538 115.538 C 142.501 113.018, 143.099 110.765, 142.867 110.533 C 142.634 110.301, 141.691 112.207, 140.769 114.769 M 63.032 114.623 C 62.990 116.086, 71.580 124, 73.210 124 C 73.900 124, 72.836 122.893, 70.845 121.541 C 68.855 120.188, 66.290 117.826, 65.145 116.291 C 64 114.756, 63.049 114.005, 63.032 114.623 M 156.200 118.700 C 154.720 123.522, 155.436 124.238, 157 119.500 C 157.660 117.501, 158.005 115.672, 157.767 115.434 C 157.530 115.196, 156.824 116.666, 156.200 118.700 M 30.030 121.378 C 29.988 122.616, 35.917 132.831, 37.105 133.565 C 37.645 133.899, 36.776 131.996, 35.174 129.336 C 33.572 126.676, 31.766 123.600, 31.161 122.500 C 30.556 121.400, 30.047 120.895, 30.030 121.378 M 133.067 130.233 C 125.011 143.233, 107.801 158.120, 91.250 166.406 C 88.362 167.851, 86 169.258, 86 169.531 C 86 170.410, 98.309 163.856, 104.333 159.769 C 117.511 150.830, 129.614 138.488, 135.855 127.624 C 139.721 120.893, 137.658 122.824, 133.067 130.233 M 40.796 138.638 C 44.545 143.493, 54.438 152.820, 59.178 155.967 C 61.657 157.612, 61.485 157.349, 58.500 154.930 C 56.300 153.148, 50.698 147.821, 46.051 143.094 C 41.404 138.368, 39.039 136.362, 40.796 138.638 M 65 159.832 C 67.857 162.196, 75 166.361, 75 165.663 C 75 165.407, 73.499 164.312, 71.664 163.229 C 69.829 162.146, 67.016 160.474, 65.414 159.512 L 62.500 157.763 65 159.832 M 77.441 167.445 C 78.509 168.300, 79.821 169, 80.358 169 C 81.628 169, 81.061 168.538, 78 167.080 C 75.643 165.958, 75.611 165.978, 77.441 167.445 M 82.733 170.124 C 83.412 170.808, 84.219 171.115, 84.526 170.807 C 84.834 170.499, 84.279 169.940, 83.293 169.564 C 81.868 169.022, 81.753 169.136, 82.733 170.124" stroke="none" fill="#acaeaf" fill-rule="evenodd"/><path d="M 72.393 13.611 C 57.209 21.238, 45.951 24.960, 25.504 29.112 C 17.257 30.787, 10.282 32.384, 10.004 32.661 C 9.252 33.410, 8.396 100.129, 9.133 100.583 C 9.481 100.798, 10.085 103.522, 10.474 106.637 C 12.414 122.167, 21.130 139.798, 33.189 152.590 C 35.828 155.389, 37.877 157.864, 37.744 158.090 C 37.610 158.315, 37.649 158.426, 37.831 158.336 C 38.013 158.246, 41.622 160.966, 45.852 164.381 C 59.305 175.242, 78.883 186, 85.195 186 C 88.628 186, 104.206 177.954, 115 170.606 C 124.375 164.223, 139.341 149.511, 144.922 141.191 C 153.051 129.073, 159.939 110.836, 159.985 101.309 C 159.993 99.554, 160.338 97.909, 160.750 97.654 C 162.117 96.809, 161.549 35.414, 160.154 33.215 C 159.702 32.502, 153.721 30.966, 146.733 29.767 C 139.800 28.577, 134.347 27.248, 134.615 26.813 C 134.884 26.379, 134.479 26.263, 133.716 26.556 C 131.173 27.531, 107.767 19.054, 96.446 13.057 L 85.278 7.140 72.393 13.611 M 78 27.601 C 74.425 29.469, 71.050 31.335, 70.500 31.748 C 69.950 32.162, 69.050 32.507, 68.500 32.516 C 66.458 32.550, 60 35.184, 60 35.984 C 60 36.440, 59.030 36.559, 57.844 36.249 C 56.484 35.893, 55.926 36.071, 56.333 36.730 C 56.688 37.304, 56.421 37.712, 55.739 37.637 C 53.738 37.416, 37 41.390, 37 42.087 C 37 42.436, 35.875 42.508, 34.500 42.245 C 33.076 41.972, 32 42.234, 32 42.852 C 32 43.449, 31.319 43.676, 30.487 43.357 C 29.655 43.037, 28.325 43.315, 27.531 43.974 C 26.737 44.633, 25.665 44.911, 25.148 44.592 C 23.733 43.717, 23.367 50.528, 23.701 71.500 C 23.868 81.950, 23.986 93.087, 23.964 96.250 C 23.941 99.469, 24.367 102, 24.930 102 C 25.484 102, 25.691 102.640, 25.391 103.423 C 24.796 104.975, 27.622 117.089, 28.784 117.962 C 29.178 118.258, 29.648 119.400, 29.829 120.500 C 30.718 125.896, 40.826 139.846, 50.004 148.343 C 61.249 158.754, 83.518 172.366, 85.134 169.817 C 85.594 169.093, 85.976 168.844, 85.985 169.264 C 86.007 170.359, 97.461 164.431, 104.333 159.769 C 119.758 149.306, 131.083 137.016, 137.824 123.426 C 142.249 114.503, 145.390 104.598, 144.668 101.839 C 144.404 100.828, 144.607 100, 145.120 100 C 146.172 100, 146.278 97.264, 146.408 66.832 C 146.458 54.915, 146.220 44.885, 145.879 44.544 C 145.537 44.203, 143.178 43.829, 140.636 43.712 C 138.094 43.595, 136.011 43.245, 136.007 42.933 C 136.003 42.622, 132.963 41.767, 129.250 41.034 C 119.183 39.046, 105.682 34.382, 95 29.204 C 89.775 26.671, 85.275 24.510, 85 24.402 C 84.725 24.293, 81.575 25.733, 78 27.601 M 111.783 66.506 C 109.427 67.766, 107.490 69.180, 107.477 69.649 C 107.436 71.148, 101.801 76.512, 100.630 76.167 C 100.008 75.983, 99.845 76.179, 100.268 76.601 C 101.205 77.539, 95.124 84, 93.304 84 C 92.587 84, 92.113 84.396, 92.250 84.880 C 92.388 85.363, 91.263 86.917, 89.750 88.332 C 88.237 89.747, 87 90.634, 87 90.304 C 87 89.974, 85.943 91.233, 84.652 93.102 C 83.360 94.971, 81.785 96.387, 81.152 96.250 C 80.518 96.112, 80.112 96.526, 80.250 97.168 C 80.387 97.811, 79.490 98.863, 78.256 99.508 C 77.022 100.152, 76.254 100.920, 76.549 101.216 C 76.845 101.511, 76.421 102.008, 75.607 102.321 C 73.948 102.957, 68.704 99.288, 69.479 98.033 C 69.754 97.590, 69.308 96.671, 68.489 95.991 C 67.670 95.311, 67 95.128, 67 95.583 C 67 96.039, 65.235 94.519, 63.078 92.206 C 60.144 89.059, 58.396 88, 56.137 88 C 54.477 88, 52.835 88.457, 52.490 89.016 C 52.144 89.575, 51.373 89.731, 50.776 89.362 C 50.153 88.977, 49.977 89.153, 50.362 89.777 C 50.731 90.374, 50.190 91.456, 49.158 92.182 C 45.725 94.595, 47.110 97.837, 54.750 105.278 C 58.737 109.161, 62 112.964, 62 113.728 C 62 114.493, 62.427 114.854, 62.950 114.531 C 63.472 114.208, 64.396 114.871, 65.002 116.003 C 66.662 119.106, 73.871 123.975, 75.820 123.310 C 76.744 122.994, 87.421 112.879, 99.546 100.831 C 111.671 88.782, 121.981 79.279, 122.456 79.712 C 122.932 80.146, 123.028 79.988, 122.671 79.363 C 122.314 78.738, 122.692 77.671, 123.511 76.991 C 125.935 74.979, 125.382 69.446, 122.534 67.205 C 121.178 66.138, 120.240 65.093, 120.450 64.883 C 120.660 64.672, 119.759 64.436, 118.449 64.358 C 117.138 64.280, 114.139 65.247, 111.783 66.506 M 67.500 97 C 67.840 97.550, 68.343 98, 68.618 98 C 68.893 98, 68.840 97.550, 68.500 97 C 68.160 96.450, 67.657 96, 67.382 96 C 67.107 96, 67.160 96.450, 67.500 97" stroke="none" fill="#e5e5e6" fill-rule="evenodd"/></svg>