<svg xmlns="http://www.w3.org/2000/svg" width="785" height="232" viewBox="0 0 785 232" version="1.1"><path d="M 718 109 L 718 150 725.500 150 C 729.625 150, 733.275 150, 733.611 150 C 733.947 150, 734.197 147.075, 734.167 143.500 C 734.136 139.925, 734.086 121.475, 734.056 102.500 L 734 68 726 68 L 718 68 718 109 M 745 109 L 745 150 753 150 L 761 150 761 109 L 761 68 753 68 L 745 68 745 109 M 581 109.500 L 581 150 589.500 150 L 598 150 598 136.500 L 598 123 603.750 122.976 C 628.056 122.873, 638.539 117.828, 642.620 104.269 C 646.800 90.379, 640.474 75.566, 628.438 71.063 C 623.513 69.220, 620.689 69, 601.962 69 L 581 69 581 109.500 M 598 96.034 L 598 108.295 607.619 107.619 C 617.119 106.951, 619.846 106.185, 623.230 103.234 C 625.599 101.169, 626.434 95.845, 625.049 91.647 C 623.201 86.048, 620.014 84.630, 608.250 84.172 L 598 83.773 598 96.034 M 669.734 89.025 C 660.509 91.352, 652.810 97.780, 648.799 106.500 C 645.534 113.600, 645.585 127.221, 648.905 134.714 C 653.868 145.916, 664.169 152, 678.171 152 C 695.945 152, 708.361 140.484, 709.702 122.755 C 711.165 103.411, 699.251 89.605, 680.116 88.468 C 676.477 88.252, 671.806 88.503, 669.734 89.025 M 671.500 104.861 C 667.131 107.559, 665.330 109.960, 664.040 114.804 C 661.811 123.176, 665.217 132.886, 671.432 135.874 C 675.632 137.894, 682.545 137.460, 686.061 134.957 C 691.617 131, 693.968 123.205, 692.035 115.146 C 689.665 105.268, 679.270 100.061, 671.500 104.861 M 64.217 174.513 C 66.261 176.651, 68.095 178.197, 68.294 177.950 C 68.492 177.703, 66.819 175.953, 64.577 174.063 L 60.500 170.626 64.217 174.513" stroke="none" fill="#4696ef" fill-rule="evenodd"/><path d="M 99.401 23.629 C 95.605 25.625, 92.050 27.589, 91.500 27.994 C 90.950 28.399, 86.900 30.076, 82.500 31.721 C 78.100 33.367, 73.600 35.065, 72.500 35.495 C 71.400 35.926, 69.825 36.377, 69 36.499 C 68.175 36.620, 64.758 37.452, 61.406 38.347 C 55.268 39.986, 42.063 42.737, 36.500 43.536 C 30.882 44.343, 30.873 44.406, 31.296 81.500 C 31.509 100.200, 31.978 117.075, 32.338 119 C 32.698 120.925, 33.055 123.175, 33.132 124 C 33.209 124.825, 33.700 126.043, 34.222 126.706 C 34.745 127.370, 34.882 128.382, 34.527 128.956 C 34.172 129.530, 34.407 130, 35.048 130 C 35.689 130, 35.960 130.661, 35.651 131.468 C 35.341 132.275, 35.525 133.206, 36.060 133.537 C 36.595 133.868, 36.793 134.526, 36.500 135 C 36.207 135.474, 36.432 136.149, 37 136.500 C 37.568 136.851, 37.774 137.557, 37.457 138.069 C 37.141 138.581, 37.385 139, 38 139 C 38.615 139, 38.840 139.450, 38.500 140 C 38.160 140.550, 38.359 141, 38.941 141 C 39.523 141, 39.911 141.338, 39.802 141.750 C 39.430 143.157, 41.132 147, 42.126 147 C 42.672 147, 42.840 147.450, 42.500 148 C 42.160 148.550, 42.385 149, 43 149 C 43.615 149, 43.869 149.403, 43.565 149.895 C 43.260 150.388, 43.712 151.059, 44.569 151.388 C 45.426 151.717, 45.876 152.392, 45.569 152.888 C 45.262 153.384, 45.712 154.059, 46.569 154.388 C 47.426 154.717, 47.847 155.439, 47.504 155.993 C 47.162 156.547, 47.373 157, 47.972 157 C 48.572 157, 49.330 157.697, 49.657 158.549 C 49.984 159.401, 51.432 161.402, 52.876 162.996 C 54.319 164.591, 56.615 167.232, 57.977 168.867 C 59.339 170.501, 60.705 171.682, 61.012 171.493 C 61.319 171.303, 64.173 173.589, 67.354 176.574 C 70.535 179.558, 73.571 182, 74.100 182 C 74.630 182, 75.321 182.672, 75.636 183.494 C 75.952 184.316, 76.612 184.740, 77.105 184.435 C 77.597 184.131, 78 184.359, 78 184.941 C 78 185.523, 78.445 186, 78.989 186 C 79.532 186, 80.897 186.788, 82.021 187.750 C 83.145 188.713, 84.388 189.532, 84.782 189.571 C 86.279 189.720, 91 192.352, 91 193.037 C 91 193.431, 93.363 194.725, 96.250 195.911 C 99.138 197.098, 102.184 198.442, 103.019 198.899 C 105.268 200.127, 113.298 199.605, 113.767 198.200 C 113.989 197.533, 114.582 197.242, 115.085 197.553 C 115.588 197.864, 116 197.615, 116 197 C 116 196.385, 116.450 196.160, 117 196.500 C 117.550 196.840, 118 196.615, 118 196 C 118 195.385, 118.450 195.160, 119 195.500 C 119.550 195.840, 120 195.615, 120 195 C 120 194.385, 120.450 194.160, 121 194.500 C 121.550 194.840, 122 194.615, 122 194 C 122 193.385, 122.450 193.160, 123 193.500 C 123.550 193.840, 124 193.690, 124 193.167 C 124 192.645, 125.125 191.934, 126.500 191.589 C 127.875 191.244, 129 190.494, 129 189.922 C 129 189.350, 129.450 189.160, 130 189.500 C 130.550 189.840, 131 189.641, 131 189.059 C 131 188.477, 131.590 188, 132.311 188 C 133.033 188, 134.589 187.100, 135.770 186 C 136.950 184.900, 138.385 184, 138.958 184 C 139.531 184, 140 183.550, 140 183 C 140 182.450, 140.567 182, 141.259 182 C 141.952 182, 143.081 181.100, 143.768 180 C 144.455 178.900, 145.672 178, 146.473 178 C 147.274 178, 148.419 177.086, 149.017 175.969 C 149.615 174.851, 151.865 172.661, 154.018 171.102 C 156.171 169.542, 157.708 168.041, 157.433 167.766 C 157.158 167.491, 158.523 165.870, 160.466 164.164 C 162.410 162.457, 164 160.601, 164 160.039 C 164 159.477, 164.900 158.455, 166 157.768 C 167.100 157.081, 168 155.952, 168 155.259 C 168 154.567, 168.477 154, 169.059 154 C 169.641 154, 169.840 153.550, 169.500 153 C 169.160 152.450, 169.359 152, 169.941 152 C 170.523 152, 171 151.325, 171 150.500 C 171 149.675, 171.450 149, 172 149 C 172.550 149, 173 148.100, 173 147 C 173 145.900, 173.414 145, 173.921 145 C 174.427 145, 175.138 143.650, 175.500 142 C 175.862 140.350, 176.573 139, 177.079 139 C 177.586 139, 177.904 138.662, 177.788 138.250 C 177.671 137.838, 178.120 136.518, 178.787 135.318 C 179.453 134.117, 180.966 129.392, 182.149 124.818 C 184.096 117.288, 184.342 113.207, 184.738 81.767 C 185.121 51.457, 184.981 46.838, 183.639 45.496 C 181.954 43.811, 173.454 41.888, 171.316 42.709 C 170.578 42.992, 169.418 42.785, 168.737 42.248 C 168.057 41.712, 166.825 41.243, 166 41.207 C 163.171 41.083, 151.496 37.950, 142 34.766 C 136.775 33.013, 132.275 31.543, 132 31.498 C 131.725 31.453, 130.037 30.636, 128.250 29.682 C 126.463 28.729, 124.993 28.298, 124.985 28.724 C 124.976 29.151, 124.639 29.041, 124.235 28.480 C 123.831 27.918, 122.375 26.891, 121 26.196 C 119.625 25.501, 116.700 23.830, 114.500 22.483 C 109.187 19.229, 107.529 19.354, 99.401 23.629 M 104.500 39.997 C 96.489 45.295, 72.765 53.094, 52.697 57.027 L 46.895 58.164 47.306 85.332 C 47.607 105.203, 48.142 114.389, 49.299 119.532 C 51.108 127.575, 55.886 141, 56.939 141 C 57.327 141, 58.658 143.026, 59.895 145.503 C 61.131 147.980, 63.011 150.471, 64.072 151.038 C 65.132 151.606, 66 152.534, 66 153.100 C 66 154.239, 75.712 164, 76.846 164 C 77.238 164, 79.120 165.512, 81.029 167.360 C 82.938 169.208, 85.513 171.038, 86.750 171.427 C 87.987 171.816, 89 172.554, 89 173.067 C 89 173.580, 89.638 174, 90.417 174 C 91.196 174, 91.983 174.338, 92.167 174.750 C 92.350 175.162, 95.728 177.200, 99.673 179.279 L 106.846 183.057 113.673 179.779 C 117.428 177.975, 120.775 176.124, 121.112 175.665 C 121.448 175.205, 121.996 174.980, 122.329 175.165 C 122.663 175.349, 123.855 174.713, 124.979 173.750 C 126.103 172.787, 127.262 172, 127.554 172 C 127.846 172, 128.628 171.542, 129.292 170.981 C 129.956 170.421, 131.625 169.052, 133 167.940 C 138.654 163.364, 145.418 157.413, 146.425 156.128 C 147.016 155.374, 148.738 153.506, 150.250 151.977 C 151.762 150.448, 153 148.788, 153 148.287 C 153 147.787, 153.804 146.505, 154.787 145.439 C 155.770 144.372, 157.175 142.037, 157.908 140.250 C 158.642 138.463, 159.592 137, 160.018 137 C 161.601 137, 166.873 118.176, 167.918 108.789 C 168.513 103.449, 169 89.914, 169 78.713 L 169 58.348 158.060 56.189 C 152.043 55.002, 142.705 52.636, 137.310 50.932 C 127.273 47.761, 110.765 40.423, 110.167 38.867 C 109.634 37.483, 107.727 37.863, 104.500 39.997 M 239.500 67.679 C 235.148 68.229, 228 71.003, 228 72.142 C 228 72.679, 227.623 72.885, 227.163 72.600 C 226.702 72.316, 224.586 73.864, 222.460 76.041 C 220.334 78.219, 218.941 80, 219.365 80 C 219.789 80, 219.172 81.354, 217.993 83.010 C 215.214 86.913, 214.955 97.043, 217.506 102.084 C 219.686 106.394, 222.952 110, 224.674 110 C 225.403 110, 226 110.382, 226 110.848 C 226 112.214, 232.682 114.751, 244.866 118.012 C 251.118 119.685, 257.061 121.498, 258.073 122.039 C 260.353 123.259, 261.464 128.649, 260.149 132.107 C 259.145 134.750, 254.376 136.661, 247.500 137.179 C 243.624 137.471, 234 133.994, 234 132.302 C 234 131.586, 233.550 131, 233 131 C 232.450 131, 232 130.186, 232 129.191 C 232 125.097, 229.967 124.223, 222.228 124.990 C 218.229 125.386, 214.700 125.967, 214.386 126.281 C 214.072 126.595, 214.516 129.248, 215.372 132.176 C 216.445 135.847, 218.289 138.897, 221.311 142 C 226.779 147.616, 228.621 149.046, 229.393 148.273 C 229.727 147.940, 230 148.178, 230 148.802 C 230 149.426, 230.675 149.678, 231.500 149.362 C 232.325 149.045, 233 149.311, 233 149.952 C 233 150.593, 233.470 150.828, 234.044 150.473 C 234.618 150.118, 235.744 150.373, 236.547 151.039 C 238.406 152.582, 258.254 151.864, 260.283 150.180 C 261.054 149.541, 261.916 149.249, 262.199 149.532 C 262.482 149.815, 264.915 148.530, 267.606 146.676 C 279.876 138.220, 281.707 120.639, 271.342 110.804 C 267.567 107.222, 261.402 104.611, 250.572 102.006 C 235.104 98.287, 231.495 95.239, 233.652 87.719 C 234.395 85.126, 235.342 84.340, 239.027 83.251 C 247.875 80.638, 257.823 84.174, 259.410 90.497 C 260.018 92.922, 260.304 93, 268.519 93 C 278.149 93, 278.215 92.923, 275.471 84.869 C 272.438 75.968, 264.291 69.902, 252.883 68.051 C 246.486 67.013, 245.077 66.974, 239.500 67.679 M 118.738 94.259 C 109.257 103.752, 100.566 112.300, 99.424 113.256 C 97.399 114.952, 97.168 114.813, 89.852 107.497 C 80.996 98.641, 78.255 97.936, 73.119 103.190 C 68.621 107.790, 69.033 110.339, 75.340 116.924 C 78.277 119.991, 83.513 125.527, 86.975 129.226 C 90.437 132.925, 93.628 135.730, 94.066 135.459 C 94.504 135.189, 95.144 135.425, 95.490 135.984 C 97.281 138.883, 101.071 136.005, 119.498 117.750 C 130.185 107.162, 141.196 96.306, 143.965 93.624 C 149.977 87.802, 150.536 84.448, 146.253 79.910 C 144.166 77.698, 142.603 77, 139.741 77 C 136.199 77, 134.956 78.022, 118.738 94.259 M 503.500 88.658 C 502.400 88.889, 500.499 89.291, 499.276 89.551 C 498.053 89.812, 495.258 91.837, 493.065 94.052 L 489.078 98.079 489.289 94.290 L 489.500 90.500 481.500 90.500 L 473.500 90.500 473.235 120.250 L 472.970 150 481.485 150 L 490 150 490 133.243 C 490 115.290, 490.606 111.394, 493.916 108.084 C 496.335 105.665, 504.934 103.516, 508.555 104.424 C 510.996 105.037, 511 105.025, 511 97.019 C 511 90.763, 510.688 89, 509.582 89 C 508.802 89, 507.564 88.828, 506.832 88.619 C 506.099 88.409, 504.600 88.427, 503.500 88.658 M 301.707 90.533 C 286.756 96.020, 279.396 115.089, 285.029 133.739 C 286.130 137.381, 296 149.857, 296 147.605 C 296 147.194, 296.707 147.564, 297.571 148.429 C 298.436 149.293, 299.984 150, 301.012 150 C 302.041 150, 303.122 150.389, 303.416 150.864 C 304.072 151.925, 320.734 152.031, 323.500 150.991 C 324.600 150.578, 325.846 150.195, 326.270 150.141 C 328.477 149.858, 338.898 139.398, 340.086 136.274 C 341.554 132.412, 341.232 132, 336.743 132 C 334.402 132, 331.026 131.581, 329.242 131.069 C 326.419 130.260, 325.838 130.423, 324.786 132.319 C 324.120 133.519, 323.708 134.950, 323.871 135.500 C 324.034 136.050, 323.845 136.178, 323.452 135.785 C 323.059 135.392, 321.796 135.730, 320.646 136.535 C 319.491 137.344, 316.332 138, 313.589 138 C 307.229 138, 302.624 135.025, 301.098 129.932 C 298.955 122.780, 297.719 123.188, 321.076 123.352 L 342.152 123.500 341.706 118 C 340.761 106.348, 339.298 102.452, 333.800 96.954 C 328.395 91.549, 321.688 89.010, 313 89.080 C 308.875 89.114, 303.793 89.767, 301.707 90.533 M 365.250 90.247 C 363.462 90.820, 362 91.674, 362 92.145 C 362 92.615, 361.431 93, 360.736 93 C 360.041 93, 357.367 95.204, 354.794 97.897 C 348.565 104.417, 346.625 110.911, 347.177 123.394 C 347.543 131.666, 349.182 137.285, 352.023 140 C 352.311 140.275, 353.331 141.734, 354.291 143.242 C 355.873 145.729, 366 151.915, 366 150.394 C 366 150.043, 366.577 150.234, 367.283 150.820 C 368.045 151.452, 372.201 151.761, 377.533 151.580 C 384.601 151.341, 387.347 150.799, 390.500 149.023 C 395.652 146.122, 399.743 141.622, 402.228 136.123 C 404.589 130.899, 403.860 130.046, 397 130.002 C 394.525 129.986, 391.600 129.739, 390.500 129.454 C 388.955 129.053, 387.977 129.860, 386.203 132.998 C 384.940 135.232, 383.477 136.795, 382.953 136.471 C 382.429 136.147, 382 136.266, 382 136.735 C 382 137.205, 379.745 137.623, 376.989 137.666 C 372.462 137.735, 371.606 137.371, 368.125 133.890 C 364.319 130.084, 364.271 129.938, 364.090 121.752 C 363.835 110.171, 365.409 106.689, 371.871 104.543 C 379.375 102.050, 384.137 103.695, 386.621 109.638 L 387.933 112.775 394.716 112.309 C 403.460 111.708, 404.369 111.391, 403.518 109.242 C 403.138 108.284, 402.675 106.754, 402.489 105.842 C 401.369 100.360, 394.188 93.400, 386.500 90.344 C 382.825 88.884, 369.686 88.824, 365.250 90.247 M 531.942 89.891 C 530.534 90.350, 528.330 91.288, 527.042 91.978 C 524.386 93.399, 517 100.890, 517 102.163 C 517 102.623, 516.523 103, 515.941 103 C 515.359 103, 515.136 103.412, 515.447 103.915 C 515.758 104.418, 515.586 104.980, 515.065 105.165 C 512.972 105.906, 511.033 120.166, 512.096 127 C 513.023 132.960, 515.774 140, 517.177 140 C 517.657 140, 518.477 141.125, 519 142.500 C 519.523 143.875, 520.614 145, 521.426 145 C 522.237 145, 523.260 145.572, 523.700 146.271 C 524.404 147.389, 529.652 150.198, 531 150.178 C 531.275 150.173, 531.950 150.508, 532.500 150.920 C 533.563 151.718, 549.401 151.703, 552.100 150.902 C 557.154 149.402, 564.434 142.957, 567.239 137.500 C 569.559 132.988, 569.486 132.688, 566 132.408 C 564.625 132.297, 561.362 131.768, 558.750 131.233 C 554.919 130.447, 554 130.524, 554 131.629 C 554 132.383, 553.523 133, 552.941 133 C 552.359 133, 552.179 133.480, 552.542 134.067 C 552.905 134.655, 552.257 135.381, 551.101 135.684 C 549.945 135.986, 549 136.657, 549 137.176 C 549 137.694, 548.581 137.859, 548.069 137.543 C 547.557 137.226, 546.904 137.347, 546.617 137.811 C 546.330 138.274, 543.820 138.362, 541.039 138.005 C 537.453 137.545, 535.139 136.549, 533.089 134.585 C 530.263 131.878, 527.478 124.441, 528.949 123.531 C 529.356 123.280, 538.646 123.075, 549.594 123.076 L 569.500 123.078 569.416 117.289 C 569.254 106.173, 563.449 95.916, 554.726 91.331 C 551.120 89.435, 536.230 88.495, 531.942 89.891 M 410 113.333 C 410 126.167, 410.337 137.004, 410.750 137.417 C 411.163 137.829, 411.556 138.579, 411.625 139.083 C 411.694 139.588, 411.806 140.380, 411.875 140.844 C 412.164 142.794, 416.811 147.065, 421 149.231 C 425.917 151.774, 438 153.096, 438 151.092 C 438 150.491, 438.337 150.053, 438.750 150.118 C 440.851 150.450, 442.236 149.697, 445.467 146.467 L 449 142.933 449 146.467 L 449 150 457 150 L 465 150 465 120 L 465 90 457 90 L 449 90 448.976 106.750 C 448.962 115.963, 448.511 125.409, 447.972 127.742 C 446.943 132.201, 444.216 136.251, 442.822 135.390 C 442.370 135.110, 442 135.284, 442 135.774 C 442 136.665, 440.276 137.051, 436.500 137.005 C 432.724 136.959, 431.444 136.444, 428.974 133.976 C 426.524 131.528, 426.497 131.300, 426.178 110.752 L 425.855 90 417.928 90 L 410 90 410 113.333 M 540.500 102.723 C 535.057 103.688, 533.986 104.212, 532.133 106.813 C 531.033 108.358, 529.829 110.832, 529.458 112.311 L 528.783 115 541.392 115 C 548.326 115, 554 114.715, 554 114.366 C 554 114.017, 553.502 112.069, 552.892 110.036 C 551.517 105.445, 545.425 101.851, 540.500 102.723 M 305.288 105.250 C 303.536 106.487, 301.857 108.471, 301.556 109.657 C 301.255 110.844, 300.733 112.531, 300.397 113.407 C 299.858 114.812, 301.271 115, 312.393 115 C 323.112 115, 325 114.768, 325 113.450 C 325 111.003, 322.222 106.269, 319.783 104.561 C 316.428 102.210, 309.096 102.559, 305.288 105.250" stroke="none" fill="#e3e4e5" fill-rule="evenodd"/></svg>